<!--?xml version="1.0" standalone="no"?-->
              <svg id="sw-js-blob-svg" viewBox="0 0 100 100" xmlns="http://www.w3.org/2000/svg" version="1.1">
                    <defs> 
                        <linearGradient id="sw-gradient" x1="0" x2="1" y1="1" y2="0">
                            <stop id="stop1" stop-color="rgba(255, 200, 0, 1)" offset="0%"></stop>
                            <stop id="stop2" stop-color="rgba(255, 200, 0, 1)" offset="100%"></stop>
                        </linearGradient>
                    </defs>
                <path fill="url(#sw-gradient)" d="M13,-21.7C20.1,-18.4,31.3,-21.5,31.9,-18.9C32.5,-16.4,22.5,-8.2,22.6,0.1C22.7,8.3,32.9,16.6,34.7,23.4C36.6,30.2,30.1,35.6,23,32.9C15.8,30.2,7.9,19.4,0.7,18.2C-6.5,17.1,-13.1,25.5,-20.2,28.2C-27.4,30.9,-35.2,27.8,-36.1,22.2C-37.1,16.5,-31.3,8.3,-30.5,0.4C-29.7,-7.4,-34,-14.8,-32.1,-18.8C-30.2,-22.8,-22.1,-23.5,-15.7,-27.2C-9.3,-31,-4.7,-37.7,-0.9,-36.2C3,-34.8,5.9,-25.1,13,-21.7Z" width="100%" height="100%" transform="translate(50 50)" stroke-width="0" style="transition: all 0.3s ease 0s;" stroke="url(#sw-gradient)"></path>
              </svg>