<!--?xml version="1.0" standalone="no"?-->
              <svg id="sw-js-blob-svg" viewBox="0 0 100 100" xmlns="http://www.w3.org/2000/svg" version="1.1">
                    <defs> 
                        <linearGradient id="sw-gradient" x1="0" x2="1" y1="1" y2="0">
                            <stop id="stop1" stop-color="rgba(255, 200, 0, 1)" offset="0%"></stop>
                            <stop id="stop2" stop-color="rgba(255, 200, 0, 1)" offset="100%"></stop>
                        </linearGradient>
                    </defs>
                <path fill="url(#sw-gradient)" d="M18.6,-34.2C23.2,-29.5,25.7,-22.8,29.4,-16.8C33.2,-10.8,38.3,-5.4,40,1C41.7,7.3,39.9,14.7,35.4,19.5C30.9,24.3,23.8,26.5,17.4,28.9C11.1,31.4,5.5,34,0.6,33C-4.4,32,-8.8,27.4,-15.7,25.3C-22.7,23.2,-32.1,23.6,-37.6,19.8C-43.1,16,-44.6,8,-40.8,2.2C-36.9,-3.5,-27.7,-7.1,-22.5,-11.4C-17.3,-15.7,-16.1,-20.7,-13,-26.4C-9.9,-32.1,-5,-38.4,1,-40.1C6.9,-41.8,13.9,-38.9,18.6,-34.2Z" width="100%" height="100%" transform="translate(50 50)" stroke-width="0" style="transition: all 0.3s ease 0s;" stroke="url(#sw-gradient)"></path>
              </svg>