<!--?xml version="1.0" standalone="no"?-->
              <svg id="sw-js-blob-svg" viewBox="0 0 100 100" xmlns="http://www.w3.org/2000/svg" version="1.1">
                    <defs> 
                        <linearGradient id="sw-gradient" x1="0" x2="1" y1="1" y2="0">
                            <stop id="stop1" stop-color="rgba(255, 200, 0, 1)" offset="0%"></stop>
                            <stop id="stop2" stop-color="rgba(255, 200, 0, 1)" offset="100%"></stop>
                        </linearGradient>
                    </defs>
                <path fill="url(#sw-gradient)" d="M21.1,-25.3C27.3,-19.9,32.3,-13.3,33.9,-5.8C35.5,1.7,33.7,10.1,29.6,17.2C25.6,24.3,19.4,30.1,11.2,34.9C3.1,39.6,-7,43.2,-16.2,41.2C-25.4,39.3,-33.8,31.8,-35.5,23.2C-37.2,14.6,-32.3,4.9,-30.6,-5.5C-28.9,-15.9,-30.3,-26.9,-25.8,-32.6C-21.2,-38.3,-10.6,-38.6,-1.6,-36.7C7.4,-34.9,14.9,-30.7,21.1,-25.3Z" width="100%" height="100%" transform="translate(50 50)" stroke-width="0" style="transition: all 0.3s ease 0s;" stroke="url(#sw-gradient)"></path>
              </svg>